# xmcd
#
# Track frame offsets:
#	150
#	18154
#	34900
#	51442
#	72584
#	90100
#	108311
#	129755
#	154694
#	171443
#	192689
#	213055
#	228212
#	247644
#	268853
#	286986
#	307984
#	323915
# Disc length: 4531 seconds
# Revision: 1
# Processed by: cddbd v1.5.2PL0 Copyright (c) Steve Scherf et al.
#
# Submitted via: libkcddb 0.31
#
DISCID=ef11b112
DTITLE=Gucci Mane - Hard To Kill
DYEAR=1958
DGENRE=Gangsta Rap
TTITLE0=Drive Fast
TTITLE1=Everybody Know Me
TTITLE2=BLOW POP
TTITLE3=Gucci Mane - Pounds For A Stack
TTITLE4=Blunt Fulla Dro
TTITLE5=Freaky Girl ((Remix)
TTITLE6=Work Ya Wrist
TTITLE7=Don't Make Me Kill
TTITLE8=Blade Icewood -  06 Game On Lock Ft Kay Deezy
TTITLE9=Everybody Know Me
TTITLE10=If You A Gee (Feat. the Outlawz)
TTITLE11=CBO-  Still Ridin
TTITLE12=The Autopsy
TTITLE13=cbo -americas nightmare (1)
TTITLE14=Stompin n my Steel Toes
TTITLE15=Maniac Ridas
TTITLE16=Gorilla Zoe Feat. Young Jeezy- Hood Nigga (Remix)
TTITLE17=Freaky Girl
EXTD=
EXTT0=
EXTT1=
EXTT2=
EXTT3=
EXTT4=
EXTT5=
EXTT6=
EXTT7=
EXTT8=
EXTT9=
EXTT10=
EXTT11=
EXTT12=
EXTT13=
EXTT14=
EXTT15=
EXTT16=
EXTT17=
PLAYORDER=
